<?xml version="1.0" encoding="utf-8"?>
<!-- Generator: Adobe Illustrator 18.0.0, SVG Export Plug-In . SVG Version: 6.00 Build 0)  -->
<!DOCTYPE svg PUBLIC "-//W3C//DTD SVG 1.1//EN" "http://www.w3.org/Graphics/SVG/1.1/DTD/svg11.dtd">
<svg version="1.1" id="Layer_1" xmlns="http://www.w3.org/2000/svg" xmlns:xlink="http://www.w3.org/1999/xlink" x="0px" y="0px"
	 viewBox="0 0 64 64" enable-background="new 0 0 64 64" xml:space="preserve">
<g>
	<g>
		<g>
			<path fill="#F96A53" d="M32,0c17.7,0,32,14.3,32,32S49.7,64,32,64S0,49.7,0,32S14.3,0,32,0z"/>
		</g>
	</g>
	<g>
		<g>
			<path fill="#F4CD76" d="M31.3,10L11,29.6l0,1.4l42-7v-1.1C48.5,15.9,40,11.3,31.3,10z"/>
		</g>
	</g>
	<g>
		<g>
			<circle fill="#D89C30" cx="30" cy="19" r="2"/>
		</g>
	</g>
	<g>
		<g>
			<circle fill="#D89C30" cx="23" cy="25" r="1"/>
		</g>
	</g>
	<g>
		<g>
			<path fill="#E2B04D" d="M11,29.7v6.1c2.3,0.2,4.2,2.1,4.2,4.4c0,2.3-1.9,4.2-4.2,4.4V50l42-6.8V22.9L11,29.7z"/>
		</g>
	</g>
	<g>
		<g>
			<ellipse fill="#D89C30" cx="20.8" cy="35.1" rx="2.1" ry="2"/>
		</g>
	</g>
	<g>
		<g>
			<ellipse fill="#D89C30" cx="32.4" cy="38.1" rx="3.8" ry="3.7"/>
		</g>
	</g>
	<g>
		<g>
			<ellipse fill="#D89C30" cx="43.6" cy="38.1" rx="2.4" ry="2.4"/>
		</g>
	</g>
	<g>
		<g>
			<circle fill="#D89C30" cx="43" cy="26" r="4"/>
		</g>
	</g>
</g>
</svg>
