<?xml version="1.0" encoding="iso-8859-1"?>
<!-- Generator: Adobe Illustrator 19.0.0, SVG Export Plug-In . SVG Version: 6.00 Build 0)  -->
<svg version="1.1" id="Capa_1" xmlns="http://www.w3.org/2000/svg" xmlns:xlink="http://www.w3.org/1999/xlink" x="0px" y="0px"
	 viewBox="0 0 512 512" style="enable-background:new 0 0 512 512;" xml:space="preserve">
<circle style="fill:#3DE000;" cx="256" cy="256" r="256"/>
<path style="fill:#00CC00;" d="M512,256c0-15.017-1.306-29.729-3.786-44.037L379.25,83L92.144,398.333l107.409,107.409
	C217.715,509.83,236.603,512,256,512C397.385,512,512,397.385,512,256z"/>
<rect x="92.14" y="178.98" style="fill:#FFDA00;" width="327.71" height="219.36"/>
<rect x="255.57" y="178.98" style="fill:#FFB600;" width="164.28" height="219.36"/>
<path style="fill:#FFF04A;" d="M419.856,398.333L297.532,283.901c-23.372-21.864-59.693-21.864-83.065,0L92.144,398.333H419.856z"/>
<path style="fill:#FFDA00;" d="M297.532,283.901c-11.798-11.037-26.895-16.494-41.961-16.388v130.82h164.285L297.532,283.901z"/>
<path style="fill:#5A54E0;" d="M419.856,178.979L419.856,178.979v-0.002h-0.002L301.488,68.247
	c-25.598-23.946-65.378-23.946-90.976,0L92.145,178.977h-0.001l0.001,0.001l-0.001,0.001h0.002l118.367,110.73
	c25.598,23.946,65.378,23.946,90.976,0L419.856,178.979L419.856,178.979z"/>
<path style="fill:#3A41CC;" d="M419.856,178.977h-0.002L301.488,68.247c-12.911-12.078-29.429-18.055-45.917-17.95v257.362
	c16.487,0.105,33.006-5.872,45.917-17.95l118.367-110.73h0.002v-0.002H419.856z"/>
<path style="fill:#FFFFFF;" d="M132.75,83v133.964l77.762,72.745c25.598,23.947,65.378,23.947,90.976,0l77.762-72.745V83H132.75z"/>
<path style="fill:#EBEBF0;" d="M255.571,83v224.659c16.487,0.105,33.006-5.872,45.917-17.95l77.762-72.745V83H255.571z"/>
<polygon style="fill:#FA5D0F;" points="157,239.649 190.899,271.361 234.667,271.361 234.667,161 157,161 "/>
<rect x="157" y="109" style="fill:#5F6C75;" width="197.49" height="31.08"/>
<rect x="255.57" y="109" style="fill:#4B5568;" width="98.92" height="31.08"/>
<g>
	<rect x="265" y="165.58" style="fill:#D2D2D7;" width="89.49" height="20.751"/>
	<rect x="265" y="206.58" style="fill:#D2D2D7;" width="89.49" height="20.751"/>
	<polygon style="fill:#D2D2D7;" points="346.519,247.583 265,247.583 265,268.334 324.336,268.334 	"/>
</g>
<g>
</g>
<g>
</g>
<g>
</g>
<g>
</g>
<g>
</g>
<g>
</g>
<g>
</g>
<g>
</g>
<g>
</g>
<g>
</g>
<g>
</g>
<g>
</g>
<g>
</g>
<g>
</g>
<g>
</g>
</svg>
